# WaveFront *.obj file (generated by Autodesk ATF)

mtllib Pata1_v1.mtl

g Sólido1

v 0.000000 -47.979693 -1.396067
v 0.000000 -47.589355 6.265257
v 0.000000 -47.144547 -9.021732
v 0.000000 -45.983496 13.766555
v 0.000000 -45.105247 -16.416967
v 0.000000 -43.203139 20.916231
v 0.000000 -41.913877 -23.392882
v 0.000000 -39.319298 27.531669
v 0.000000 -37.651951 -29.771304
v 0.000000 -34.431171 33.443899
v 0.000000 -32.428329 -35.389311
v 0.000000 -28.663611 38.501914
v 0.000000 -26.376431 -40.103416
v 0.000000 -22.163932 42.576518
v 0.000000 -19.650831 -43.793206
v 0.000000 -15.098149 45.563645
v 0.000000 -12.423314 -259.228878
v 0.000000 -12.423314 -46.364441
v 0.000000 -7.646730 47.386999
v 0.000000 0.000000 48.000002
v 0.000000 7.646730 47.386999
v 0.000000 12.423314 -259.228878
v 0.000000 12.423314 -46.364441
v 0.000000 15.098149 45.563645
v 0.000000 19.650831 -43.793206
v 0.000000 22.163932 42.576518
v 0.000000 26.376431 -40.103416
v 0.000000 28.663611 38.501914
v 0.000000 32.428329 -35.389311
v 0.000000 34.431171 33.443899
v 0.000000 37.651951 -29.771304
v 0.000000 39.319298 27.531669
v 0.000000 41.913877 -23.392882
v 0.000000 43.203139 20.916231
v 0.000000 45.105247 -16.416967
v 0.000000 45.983496 13.766555
v 0.000000 47.144547 -9.021732
v 0.000000 47.589355 6.265257
v 0.000000 47.979693 -1.396067
v 40.000000 -47.979693 -1.396067
v 40.000000 -47.589355 6.265257
v 40.000000 -47.144547 -9.021732
v 40.000000 -45.983496 13.766555
v 40.000000 -45.105247 -16.416967
v 40.000000 -43.203139 20.916231
v 40.000000 -41.913877 -23.392882
v 40.000000 -39.319298 27.531669
v 40.000000 -37.651951 -29.771304
v 40.000000 -34.431171 33.443899
v 40.000000 -32.428329 -35.389311
v 40.000000 -28.663611 38.501914
v 40.000000 -26.376431 -40.103416
v 40.000000 -22.163932 42.576518
v 40.000000 -19.650831 -43.793206
v 40.000000 -15.098149 45.563645
v 40.000000 -12.423314 -259.228878
v 40.000000 -12.423314 -46.364441
v 40.000000 -7.646730 47.386999
v 40.000000 0.000000 48.000002
v 40.000000 7.646730 47.386999
v 40.000000 12.423314 -259.228878
v 40.000000 12.423314 -46.364441
v 40.000000 15.098149 45.563645
v 40.000000 19.650831 -43.793206
v 40.000000 22.163932 42.576518
v 40.000000 26.376431 -40.103416
v 40.000000 28.663611 38.501914
v 40.000000 32.428329 -35.389311
v 40.000000 34.431171 33.443899
v 40.000000 37.651951 -29.771304
v 40.000000 39.319298 27.531669
v 40.000000 41.913877 -23.392882
v 40.000000 43.203139 20.916231
v 40.000000 45.105247 -16.416967
v 40.000000 45.983496 13.766555
v 40.000000 47.144547 -9.021732
v 40.000000 47.589355 6.265257
v 40.000000 47.979693 -1.396067
vt 0.000000 0.000000 0.000000
vt 21.286444 0.000000 0.000000
vt 21.286444 4.000000 0.000000
vt 0.000000 4.000000 0.000000
vt 0.000000 0.000000 0.000000
vt 21.286444 0.000000 0.000000
vt 21.286444 4.000000 0.000000
vt 0.000000 4.000000 0.000000
vt 0.000000 0.000000 0.000000
vt 2.484663 0.000000 0.000000
vt 2.484663 4.000000 0.000000
vt 0.000000 4.000000 0.000000
vt -0.000000 -8.796460 0.000000
vt -4.000000 -8.796460 0.000000
vt -4.000000 -9.564404 0.000000
vt -4.000000 -10.332349 0.000000
vt -4.000000 -11.100294 0.000000
vt -4.000000 -11.868238 0.000000
vt -4.000000 -12.636185 0.000000
vt -4.000000 -13.404129 0.000000
vt -4.000000 -14.172074 0.000000
vt -4.000000 -14.940019 0.000000
vt -4.000000 14.451327 0.000000
vt -4.000000 13.683382 0.000000
vt -4.000000 12.915438 0.000000
vt -4.000000 12.147492 0.000000
vt -4.000000 11.379547 0.000000
vt -4.000000 10.611602 0.000000
vt -4.000000 9.843657 0.000000
vt -4.000000 9.075713 0.000000
vt -4.000000 8.307768 0.000000
vt -4.000000 7.539823 0.000000
vt -4.000000 6.771878 0.000000
vt -4.000000 6.003933 0.000000
vt -4.000000 5.235988 0.000000
vt -4.000000 4.468043 0.000000
vt -4.000000 3.700098 0.000000
vt -4.000000 2.932153 0.000000
vt -4.000000 2.164208 0.000000
vt -4.000000 1.396263 0.000000
vt -4.000000 0.628319 0.000000
vt -4.000000 -0.139626 0.000000
vt -4.000000 -0.907571 0.000000
vt -4.000000 -1.675516 0.000000
vt -4.000000 -2.443461 0.000000
vt -4.000000 -3.211406 0.000000
vt -4.000000 -3.979351 0.000000
vt -4.000000 -4.747296 0.000000
vt -4.000000 -5.515241 0.000000
vt -4.000000 -6.283185 0.000000
vt -0.000000 -6.283185 0.000000
vt -0.000000 -5.515241 0.000000
vt -0.000000 -4.747296 0.000000
vt -0.000000 -3.979351 0.000000
vt -0.000000 -3.211406 0.000000
vt -0.000000 -2.443461 0.000000
vt -0.000000 -1.675516 0.000000
vt -0.000000 -0.907571 0.000000
vt -0.000000 -0.139626 0.000000
vt -0.000000 0.628319 0.000000
vt -0.000000 1.396263 0.000000
vt -0.000000 2.164208 0.000000
vt -0.000000 2.932153 0.000000
vt -0.000000 3.700098 0.000000
vt -0.000000 4.468043 0.000000
vt -0.000000 5.235988 0.000000
vt -0.000000 6.003933 0.000000
vt -0.000000 6.771878 0.000000
vt -0.000000 7.539823 0.000000
vt -0.000000 8.307768 0.000000
vt -0.000000 9.075713 0.000000
vt -0.000000 9.843657 0.000000
vt -0.000000 10.611602 0.000000
vt -0.000000 11.379547 0.000000
vt -0.000000 12.147492 0.000000
vt -0.000000 12.915438 0.000000
vt -0.000000 13.683382 0.000000
vt -0.000000 -15.707964 0.000000
vt -0.000000 -14.940019 0.000000
vt -0.000000 -14.172074 0.000000
vt -0.000000 -13.404129 0.000000
vt -0.000000 -12.636185 0.000000
vt -0.000000 -11.868238 0.000000
vt -0.000000 -11.100294 0.000000
vt -0.000000 -10.332349 0.000000
vt -0.000000 -9.564404 0.000000
vt -4.000000 -15.707964 0.000000
vt -4.000000 -15.707964 0.000000
vt -0.000000 14.451327 0.000000
vt -0.000000 14.451327 0.000000
vt 4.636444 1.242331 0.000000
vt 4.379321 1.965083 0.000000
vt 4.010342 2.637643 0.000000
vt 3.538931 3.242833 0.000000
vt 2.977130 3.765195 0.000000
vt 2.339288 4.191388 0.000000
vt 1.641697 4.510525 0.000000
vt 0.902173 4.714455 0.000000
vt 0.139607 4.797969 0.000000
vt -0.626526 4.758935 0.000000
vt -1.376655 4.598350 0.000000
vt -2.091623 4.320314 0.000000
vt -2.753167 3.931930 0.000000
vt -3.344390 3.443117 0.000000
vt -3.850191 2.866361 0.000000
vt -4.257652 2.216393 0.000000
vt -4.556365 1.509815 0.000000
vt -4.738700 0.764673 0.000000
vt -4.800000 0.000000 0.000000
vt -4.738700 -0.764673 0.000000
vt -4.556365 -1.509815 0.000000
vt -4.257652 -2.216393 0.000000
vt -3.850191 -2.866361 0.000000
vt -3.344390 -3.443117 0.000000
vt -2.753167 -3.931930 0.000000
vt -2.091623 -4.320314 0.000000
vt -1.376655 -4.598350 0.000000
vt -0.626526 -4.758935 0.000000
vt 0.139607 -4.797969 0.000000
vt 0.902173 -4.714455 0.000000
vt 1.641697 -4.510525 0.000000
vt 2.339288 -4.191388 0.000000
vt 2.977130 -3.765195 0.000000
vt 3.538931 -3.242833 0.000000
vt 4.010342 -2.637643 0.000000
vt 4.379321 -1.965083 0.000000
vt 4.636444 -1.242331 0.000000
vt 25.922888 -1.242331 0.000000
vt 25.922888 1.242331 0.000000
vt -4.636444 -1.242331 0.000000
vt -4.379321 -1.965083 0.000000
vt -4.010342 -2.637643 0.000000
vt -3.538931 -3.242833 0.000000
vt -2.977130 -3.765195 0.000000
vt -2.339288 -4.191388 0.000000
vt -1.641697 -4.510525 0.000000
vt -0.902173 -4.714455 0.000000
vt -0.139607 -4.797969 0.000000
vt 0.626526 -4.758935 0.000000
vt 1.376655 -4.598350 0.000000
vt 2.091623 -4.320314 0.000000
vt 2.753167 -3.931930 0.000000
vt 3.344390 -3.443117 0.000000
vt 3.850191 -2.866361 0.000000
vt 4.257652 -2.216393 0.000000
vt 4.556365 -1.509815 0.000000
vt 4.738700 -0.764673 0.000000
vt 4.800000 0.000000 0.000000
vt 4.738700 0.764673 0.000000
vt 4.556365 1.509815 0.000000
vt 4.257652 2.216393 0.000000
vt 3.850191 2.866361 0.000000
vt 3.344390 3.443117 0.000000
vt 2.753167 3.931930 0.000000
vt 2.091623 4.320314 0.000000
vt 1.376655 4.598350 0.000000
vt 0.626526 4.758935 0.000000
vt -0.139607 4.797969 0.000000
vt -0.902173 4.714455 0.000000
vt -1.641697 4.510525 0.000000
vt -2.339288 4.191388 0.000000
vt -2.977130 3.765195 0.000000
vt -3.538931 3.242833 0.000000
vt -4.010342 2.637643 0.000000
vt -4.379321 1.965083 0.000000
vt -4.636444 1.242331 0.000000
vt -25.922888 1.242331 0.000000
vt -25.922888 -1.242331 0.000000
vn 0.000000 0.100000 0.000000
vn 0.000000 0.100000 0.000000
vn 0.000000 0.100000 0.000000
vn 0.000000 0.100000 0.000000
vn 0.000000 -0.100000 0.000000
vn 0.000000 -0.100000 0.000000
vn 0.000000 -0.100000 0.000000
vn 0.000000 -0.100000 0.000000
vn 0.000000 0.000000 -0.100000
vn 0.000000 0.000000 -0.100000
vn 0.000000 0.000000 -0.100000
vn 0.000000 0.000000 -0.100000
vn 0.000000 -0.025882 -0.096593
vn 0.000000 -0.025882 -0.096593
vn 0.000000 -0.040939 -0.091236
vn 0.000000 -0.054951 -0.083549
vn 0.000000 -0.067559 -0.073728
vn 0.000000 -0.078442 -0.062024
vn 0.000000 -0.087321 -0.048735
vn 0.000000 -0.093969 -0.034202
vn 0.000000 -0.098218 -0.018795
vn 0.000000 -0.099958 -0.002908
vn 0.000000 -0.099144 0.013053
vn 0.000000 -0.095799 0.028680
vn 0.000000 -0.090007 0.043575
vn 0.000000 -0.081915 0.057358
vn 0.000000 -0.071732 0.069675
vn 0.000000 -0.059716 0.080212
vn 0.000000 -0.046175 0.088701
vn 0.000000 -0.031454 0.094924
vn 0.000000 -0.015931 0.098723
vn 0.000000 0.000000 0.100000
vn 0.000000 0.015931 0.098723
vn 0.000000 0.031454 0.094924
vn 0.000000 0.046175 0.088701
vn 0.000000 0.059716 0.080212
vn 0.000000 0.071732 0.069675
vn 0.000000 0.081915 0.057358
vn 0.000000 0.090007 0.043575
vn 0.000000 0.095799 0.028680
vn 0.000000 0.099144 0.013053
vn 0.000000 0.099958 -0.002908
vn 0.000000 0.098218 -0.018795
vn 0.000000 0.093969 -0.034202
vn 0.000000 0.087321 -0.048735
vn 0.000000 0.078442 -0.062024
vn 0.000000 0.067559 -0.073728
vn 0.000000 0.054951 -0.083549
vn 0.000000 0.040939 -0.091236
vn 0.000000 0.025882 -0.096593
vn 0.000000 0.025882 -0.096593
vn 0.000000 0.040939 -0.091236
vn 0.000000 0.054951 -0.083549
vn 0.000000 0.067559 -0.073728
vn 0.000000 0.078442 -0.062024
vn 0.000000 0.087321 -0.048735
vn 0.000000 0.093969 -0.034202
vn 0.000000 0.098218 -0.018795
vn 0.000000 0.099958 -0.002908
vn 0.000000 0.099144 0.013053
vn 0.000000 0.095799 0.028680
vn 0.000000 0.090007 0.043575
vn 0.000000 0.081915 0.057358
vn 0.000000 0.071732 0.069675
vn 0.000000 0.059716 0.080212
vn 0.000000 0.046175 0.088701
vn 0.000000 0.031454 0.094924
vn 0.000000 0.015931 0.098723
vn 0.000000 0.000000 0.100000
vn 0.000000 -0.015931 0.098723
vn 0.000000 -0.031454 0.094924
vn 0.000000 -0.046175 0.088701
vn 0.000000 -0.059716 0.080212
vn 0.000000 -0.071732 0.069675
vn 0.000000 -0.081915 0.057358
vn 0.000000 -0.090007 0.043575
vn 0.000000 -0.095799 0.028680
vn 0.000000 -0.099144 0.013053
vn 0.000000 -0.099958 -0.002908
vn 0.000000 -0.098218 -0.018795
vn 0.000000 -0.093969 -0.034202
vn 0.000000 -0.087321 -0.048735
vn 0.000000 -0.078442 -0.062024
vn 0.000000 -0.067559 -0.073728
vn 0.000000 -0.054951 -0.083549
vn 0.000000 -0.040939 -0.091236
vn 0.000000 -0.099144 0.013053
vn 0.000000 -0.099144 0.013053
vn 0.000000 -0.099144 0.013053
vn 0.000000 -0.099144 0.013053
vn 0.100000 0.000000 0.000000
vn 0.100000 0.000000 0.000000
vn 0.100000 0.000000 0.000000
vn 0.100000 0.000000 0.000000
vn 0.100000 0.000000 0.000000
vn 0.100000 0.000000 0.000000
vn 0.100000 0.000000 0.000000
vn 0.100000 0.000000 0.000000
vn 0.100000 0.000000 0.000000
vn 0.100000 0.000000 0.000000
vn 0.100000 0.000000 0.000000
vn 0.100000 0.000000 0.000000
vn 0.100000 0.000000 0.000000
vn 0.100000 0.000000 0.000000
vn 0.100000 0.000000 0.000000
vn 0.100000 0.000000 0.000000
vn 0.100000 0.000000 0.000000
vn 0.100000 0.000000 0.000000
vn 0.100000 0.000000 0.000000
vn 0.100000 0.000000 0.000000
vn 0.100000 0.000000 0.000000
vn 0.100000 0.000000 0.000000
vn 0.100000 0.000000 0.000000
vn 0.100000 0.000000 0.000000
vn 0.100000 0.000000 0.000000
vn 0.100000 0.000000 0.000000
vn 0.100000 0.000000 0.000000
vn 0.100000 0.000000 0.000000
vn 0.100000 0.000000 0.000000
vn 0.100000 0.000000 0.000000
vn 0.100000 0.000000 0.000000
vn 0.100000 0.000000 0.000000
vn 0.100000 0.000000 0.000000
vn 0.100000 0.000000 0.000000
vn 0.100000 0.000000 0.000000
vn 0.100000 0.000000 0.000000
vn 0.100000 0.000000 0.000000
vn 0.100000 0.000000 0.000000
vn 0.100000 0.000000 0.000000
vn -0.100000 0.000000 0.000000
vn -0.100000 0.000000 0.000000
vn -0.100000 0.000000 0.000000
vn -0.100000 0.000000 0.000000
vn -0.100000 0.000000 0.000000
vn -0.100000 0.000000 0.000000
vn -0.100000 0.000000 0.000000
vn -0.100000 0.000000 0.000000
vn -0.100000 0.000000 0.000000
vn -0.100000 0.000000 0.000000
vn -0.100000 0.000000 0.000000
vn -0.100000 0.000000 0.000000
vn -0.100000 0.000000 0.000000
vn -0.100000 0.000000 0.000000
vn -0.100000 0.000000 0.000000
vn -0.100000 0.000000 0.000000
vn -0.100000 0.000000 0.000000
vn -0.100000 0.000000 0.000000
vn -0.100000 0.000000 0.000000
vn -0.100000 0.000000 0.000000
vn -0.100000 0.000000 0.000000
vn -0.100000 0.000000 0.000000
vn -0.100000 0.000000 0.000000
vn -0.100000 0.000000 0.000000
vn -0.100000 0.000000 0.000000
vn -0.100000 0.000000 0.000000
vn -0.100000 0.000000 0.000000
vn -0.100000 0.000000 0.000000
vn -0.100000 0.000000 0.000000
vn -0.100000 0.000000 0.000000
vn -0.100000 0.000000 0.000000
vn -0.100000 0.000000 0.000000
vn -0.100000 0.000000 0.000000
vn -0.100000 0.000000 0.000000
vn -0.100000 0.000000 0.000000
vn -0.100000 0.000000 0.000000
vn -0.100000 0.000000 0.000000
vn -0.100000 0.000000 0.000000
vn -0.100000 0.000000 0.000000
usemtl 191,191,191
f 62/1/1 61/2/2 23/4/4
f 23/4/4 61/2/2 22/3/3
f 56/5/5 57/6/6 17/8/8
f 17/8/8 57/6/6 18/7/7
f 61/9/9 56/10/10 22/12/12
f 22/12/12 56/10/10 17/11/11
f 57/14/14 54/15/15 18/13/13
f 18/13/13 54/15/15 15/86/86
f 15/86/86 54/15/15 52/16/16
f 15/86/86 52/16/16 13/85/85
f 13/85/85 52/16/16 50/17/17
f 13/85/85 50/17/17 11/84/84
f 11/84/84 50/17/17 48/18/18
f 11/84/84 48/18/18 9/83/83
f 9/83/83 48/18/18 46/19/19
f 9/83/83 46/19/19 7/82/82
f 7/82/82 46/19/19 44/20/20
f 7/82/82 44/20/20 5/81/81
f 5/81/81 44/20/20 42/21/21
f 5/81/81 42/21/21 3/80/80
f 3/80/80 42/21/21 40/22/22
f 3/80/80 40/22/22 1/79/79
f 1/79/79 40/22/22 41/87/87
f 1/79/79 41/88/88 2/78/78
f 2/89/89 41/23/23 43/24/24
f 2/90/90 43/24/24 4/77/77
f 4/77/77 43/24/24 45/25/25
f 4/77/77 45/25/25 6/76/76
f 6/76/76 45/25/25 47/26/26
f 6/76/76 47/26/26 8/75/75
f 8/75/75 47/26/26 49/27/27
f 8/75/75 49/27/27 10/74/74
f 10/74/74 49/27/27 51/28/28
f 10/74/74 51/28/28 12/73/73
f 12/73/73 51/28/28 53/29/29
f 12/73/73 53/29/29 14/72/72
f 14/72/72 53/29/29 55/30/30
f 14/72/72 55/30/30 16/71/71
f 16/71/71 55/30/30 58/31/31
f 16/71/71 58/31/31 19/70/70
f 19/70/70 58/31/31 59/32/32
f 19/70/70 59/32/32 20/69/69
f 20/69/69 59/32/32 60/33/33
f 20/69/69 60/33/33 21/68/68
f 21/68/68 60/33/33 63/34/34
f 21/68/68 63/34/34 24/67/67
f 24/67/67 63/34/34 65/35/35
f 24/67/67 65/35/35 26/66/66
f 26/66/66 65/35/35 67/36/36
f 26/66/66 67/36/36 28/65/65
f 28/65/65 67/36/36 69/37/37
f 28/65/65 69/37/37 30/64/64
f 30/64/64 69/37/37 71/38/38
f 30/64/64 71/38/38 32/63/63
f 32/63/63 71/38/38 73/39/39
f 32/63/63 73/39/39 34/62/62
f 34/62/62 73/39/39 75/40/40
f 34/62/62 75/40/40 36/61/61
f 36/61/61 75/40/40 77/41/41
f 36/61/61 77/41/41 38/60/60
f 38/60/60 77/41/41 78/42/42
f 38/60/60 78/42/42 39/59/59
f 39/59/59 78/42/42 76/43/43
f 39/59/59 76/43/43 37/58/58
f 37/58/58 76/43/43 74/44/44
f 37/58/58 74/44/44 35/57/57
f 35/57/57 74/44/44 72/45/45
f 35/57/57 72/45/45 33/56/56
f 33/56/56 72/45/45 70/46/46
f 33/56/56 70/46/46 31/55/55
f 31/55/55 70/46/46 68/47/47
f 31/55/55 68/47/47 29/54/54
f 29/54/54 68/47/47 66/48/48
f 29/54/54 66/48/48 27/53/53
f 27/53/53 66/48/48 64/49/49
f 27/53/53 64/49/49 25/52/52
f 25/52/52 64/49/49 62/50/50
f 25/52/52 62/50/50 23/51/51
f 64/92/92 63/107/107 62/91/91
f 62/91/91 63/107/107 60/108/108
f 62/91/91 60/108/108 59/109/109
f 63/107/107 64/92/92 65/106/106
f 65/106/106 64/92/92 66/93/93
f 65/106/106 66/93/93 67/105/105
f 67/105/105 66/93/93 68/94/94
f 67/105/105 68/94/94 69/104/104
f 69/104/104 68/94/94 70/95/95
f 69/104/104 70/95/95 71/103/103
f 71/103/103 70/95/95 72/96/96
f 71/103/103 72/96/96 73/102/102
f 73/102/102 72/96/96 74/97/97
f 73/102/102 74/97/97 75/101/101
f 75/101/101 74/97/97 76/98/98
f 75/101/101 76/98/98 77/100/100
f 77/100/100 76/98/98 78/99/99
f 62/91/91 59/109/109 57/127/127
f 57/127/127 59/109/109 58/110/110
f 57/127/127 58/110/110 55/111/111
f 57/127/127 55/111/111 54/126/126
f 54/126/126 55/111/111 53/112/112
f 54/126/126 53/112/112 52/125/125
f 52/125/125 53/112/112 51/113/113
f 52/125/125 51/113/113 50/124/124
f 50/124/124 51/113/113 49/114/114
f 50/124/124 49/114/114 48/123/123
f 48/123/123 49/114/114 47/115/115
f 48/123/123 47/115/115 46/122/122
f 46/122/122 47/115/115 45/116/116
f 46/122/122 45/116/116 44/121/121
f 44/121/121 45/116/116 43/117/117
f 44/121/121 43/117/117 42/120/120
f 42/120/120 43/117/117 41/118/118
f 42/120/120 41/118/118 40/119/119
f 57/127/127 56/128/128 62/91/91
f 62/91/91 56/128/128 61/129/129
f 15/131/131 16/146/146 18/130/130
f 18/130/130 16/146/146 19/147/147
f 18/130/130 19/147/147 20/148/148
f 16/146/146 15/131/131 14/145/145
f 14/145/145 15/131/131 13/132/132
f 14/145/145 13/132/132 12/144/144
f 12/144/144 13/132/132 11/133/133
f 12/144/144 11/133/133 10/143/143
f 10/143/143 11/133/133 9/134/134
f 10/143/143 9/134/134 8/142/142
f 8/142/142 9/134/134 7/135/135
f 8/142/142 7/135/135 6/141/141
f 6/141/141 7/135/135 5/136/136
f 6/141/141 5/136/136 4/140/140
f 4/140/140 5/136/136 3/137/137
f 4/140/140 3/137/137 2/139/139
f 2/139/139 3/137/137 1/138/138
f 18/130/130 20/148/148 23/166/166
f 23/166/166 20/148/148 21/149/149
f 23/166/166 21/149/149 24/150/150
f 23/166/166 24/150/150 25/165/165
f 25/165/165 24/150/150 26/151/151
f 25/165/165 26/151/151 27/164/164
f 27/164/164 26/151/151 28/152/152
f 27/164/164 28/152/152 29/163/163
f 29/163/163 28/152/152 30/153/153
f 29/163/163 30/153/153 31/162/162
f 31/162/162 30/153/153 32/154/154
f 31/162/162 32/154/154 33/161/161
f 33/161/161 32/154/154 34/155/155
f 33/161/161 34/155/155 35/160/160
f 35/160/160 34/155/155 36/156/156
f 35/160/160 36/156/156 37/159/159
f 37/159/159 36/156/156 38/157/157
f 37/159/159 38/157/157 39/158/158
f 22/167/167 17/168/168 23/166/166
f 23/166/166 17/168/168 18/130/130

# 78 vertices
# 168 texture params
# 168 normals
# 152 facets

# 1 groups
